<svg width="477" height="317" viewBox="0 0 477 317" fill="none" xmlns="http://www.w3.org/2000/svg">
<g clip-path="url(#clip0_356_2728)">
<path d="M171.1 182.436C187.447 153.68 218.629 131.601 251.638 133.728C227.289 160.205 213.091 194.442 211.556 230.38C211.014 244.242 211.854 259.716 202.65 270.096C196.924 276.554 188.17 279.682 179.563 280.338C170.956 280.994 162.351 279.439 153.859 277.891L151.799 278.523C151.015 245.455 154.753 211.192 171.1 182.436Z" fill="#F0F0F0"/>
<path d="M251.687 134.42C227.277 146.171 206.463 165.796 193.687 189.73C190.924 194.905 188.572 200.394 187.546 206.198C186.52 212.005 187.237 217.533 189.22 223.048C191.034 228.09 193.472 233.038 194.028 238.433C194.614 244.119 192.522 249.436 188.756 253.656C184.147 258.819 177.959 262.019 171.798 264.937C164.958 268.178 157.802 271.435 152.957 277.483C152.37 278.216 151.267 277.262 151.853 276.53C160.282 266.008 174.711 264.03 184.716 255.554C189.385 251.599 192.89 246.213 192.669 239.902C192.476 234.383 189.965 229.279 188.085 224.19C186.111 218.846 185.127 213.473 185.835 207.776C186.559 201.948 188.701 196.354 191.319 191.132C197.223 179.354 205.303 168.541 214.559 159.194C225.197 148.45 237.594 139.604 251.214 133.04C252.058 132.634 252.524 134.017 251.687 134.42Z" fill="white"/>
<path d="M197.429 181.731C193.687 178.995 191.039 175.018 189.959 170.51C188.879 166.002 189.436 161.256 191.531 157.121C191.958 156.286 193.276 156.91 192.849 157.746C190.89 161.593 190.372 166.014 191.386 170.21C192.401 174.405 194.882 178.1 198.382 180.628C199.141 181.178 198.184 182.278 197.429 181.731Z" fill="white"/>
<path d="M187.965 220.613C197.342 219.242 205.858 214.389 211.814 207.019C212.404 206.288 213.507 207.241 212.918 207.971C206.705 215.629 197.833 220.662 188.072 222.067C187.141 222.2 187.04 220.745 187.965 220.613Z" fill="white"/>
<path d="M225.917 150.243C227.145 151.604 228.691 152.638 230.416 153.253C232.142 153.869 233.994 154.046 235.805 153.768C236.733 153.624 236.834 155.078 235.912 155.222C233.909 155.519 231.865 155.321 229.956 154.646C228.048 153.97 226.334 152.838 224.965 151.347C224.824 151.217 224.738 151.039 224.724 150.848C224.71 150.657 224.769 150.468 224.889 150.319C225.016 150.173 225.195 150.084 225.388 150.07C225.58 150.056 225.771 150.118 225.917 150.243Z" fill="white"/>
<path d="M317.315 224.442C316.738 224.549 316.161 224.656 315.579 224.774C307.828 226.253 300.21 228.359 292.801 231.071C292.224 231.271 291.643 231.483 291.074 231.7C273.292 238.425 256.913 248.392 242.77 261.096C237.146 266.156 231.916 271.637 227.124 277.491C220.507 285.576 213.975 294.868 205.328 300.14C204.432 300.7 203.503 301.204 202.544 301.649L152.731 280.987C152.641 280.883 152.546 280.791 152.456 280.687L150.43 279.953C150.656 279.634 150.897 279.307 151.123 278.988C151.253 278.803 151.395 278.621 151.525 278.436C151.616 278.313 151.707 278.191 151.781 278.076C151.811 278.035 151.842 277.994 151.867 277.965C151.942 277.849 152.023 277.75 152.093 277.646C153.437 275.819 154.796 273.998 156.17 272.184C156.175 272.172 156.175 272.172 156.191 272.165C166.696 258.367 178.446 245.325 191.802 234.481C192.204 234.155 192.61 233.817 193.035 233.5C199.082 228.646 205.516 224.293 212.273 220.487C215.979 218.414 219.788 216.531 223.685 214.844C233.762 210.504 244.459 207.775 255.384 206.759C277.163 204.737 299.346 209.702 316.049 223.384C316.476 223.735 316.893 224.08 317.315 224.442Z" fill="#F0F0F0"/>
<path d="M316.941 225.028C290.376 219.714 261.942 222.852 237.331 234.27C232.01 236.738 226.827 239.706 222.513 243.722C218.197 247.741 215.442 252.586 213.705 258.184C212.117 263.301 211.085 268.719 208.281 273.362C205.325 278.255 200.453 281.241 194.906 282.343C188.118 283.691 181.25 282.519 174.574 281.14C167.161 279.609 159.486 277.902 151.977 279.814C151.067 280.045 150.761 278.62 151.669 278.389C164.735 275.062 177.446 282.17 190.538 281.426C196.647 281.079 202.688 278.889 206.311 273.717C209.479 269.194 210.548 263.607 212.111 258.412C213.752 252.957 216.201 248.074 220.197 243.951C224.284 239.734 229.362 236.558 234.596 233.964C246.401 228.115 259.363 224.346 272.381 222.455C287.343 220.281 302.567 220.683 317.394 223.642C318.312 223.826 317.852 225.21 316.941 225.028Z" fill="white"/>
<path d="M245.135 230.137C243.794 225.699 244.075 220.929 245.926 216.679C247.778 212.43 251.08 208.976 255.243 206.936C256.086 206.526 256.763 207.818 255.918 208.229C252.038 210.121 248.963 213.338 247.247 217.299C245.531 221.26 245.287 225.704 246.56 229.829C246.835 230.726 245.409 231.028 245.135 230.137Z" fill="white"/>
<path d="M214.168 255.483C222.48 260.034 232.202 261.286 241.395 258.988C242.306 258.759 242.613 260.185 241.703 260.413C232.132 262.786 222.017 261.463 213.378 256.708C212.555 256.254 213.35 255.031 214.168 255.483Z" fill="white"/>
<path d="M286.839 222.147C287 223.972 287.611 225.729 288.619 227.259C289.626 228.789 290.998 230.045 292.611 230.914C293.439 231.358 292.644 232.58 291.821 232.14C290.043 231.171 288.53 229.782 287.413 228.094C286.296 226.405 285.61 224.469 285.414 222.455C285.379 222.266 285.418 222.072 285.522 221.911C285.625 221.75 285.787 221.635 285.972 221.588C286.161 221.548 286.358 221.585 286.52 221.689C286.683 221.794 286.797 221.958 286.839 222.147Z" fill="white"/>
<path d="M222.424 258.53C215.448 224.799 206.728 213.553 206.728 213.553L203.396 210.969L199.39 207.857L199.409 207.457L198.459 207.134L198.236 206.961L197.87 206.68L197.811 206.743L197.687 206.872L179.558 200.71L156.559 192.897L145.909 179.054C144.174 176.8 141.941 174.978 139.385 173.731C136.828 172.484 134.017 171.846 131.173 171.867L97.1597 172.118C92.5607 172.152 88.1408 173.906 84.769 177.033L62.4127 197.77L27.5772 214.408L27.5184 214.349L27.1526 214.61L21.7702 217.184L21.9923 218.34L18.661 220.744C18.661 220.744 9.94068 231.208 2.96443 262.594C1.18976 270.581 0.316195 287.712 0.000886084 308.823C-0.0149518 309.89 0.181669 310.951 0.57931 311.942C0.976952 312.933 1.56768 313.836 2.31716 314.597C3.06663 315.357 3.95989 315.962 4.945 316.374C5.93012 316.787 6.98742 317 8.05545 317H194.118L217.341 317C218.409 316.999 219.465 316.787 220.45 316.375C221.434 315.963 222.327 315.359 223.076 314.599C223.826 313.839 224.417 312.938 224.815 311.948C225.213 310.958 225.411 309.898 225.396 308.831C225.088 285.859 224.215 267.191 222.424 258.53Z" fill="#3F3D56"/>
<path d="M246.296 29.4164C239.057 29.4164 232.115 32.2921 226.996 37.4108C221.878 42.5295 219.002 49.4719 219.002 56.7109C219.002 63.9498 221.878 70.8923 226.996 76.011C232.115 81.1297 239.057 84.0054 246.296 84.0054H449.705C456.944 84.0054 463.886 81.1297 469.005 76.011C474.124 70.8923 477 63.9498 477 56.7109C477 49.4719 474.124 42.5295 469.005 37.4108C463.886 32.2921 456.944 29.4164 449.705 29.4164H246.296Z" fill="#E5E5E5"/>
<path d="M246.297 34.9403C240.523 34.9403 234.986 37.234 230.903 41.3167C226.82 45.3995 224.526 50.937 224.526 56.7109C224.526 62.4848 226.82 68.0222 230.903 72.105C234.986 76.1878 240.523 78.4815 246.297 78.4815H449.706C455.48 78.4815 461.017 76.1878 465.1 72.105C469.183 68.0222 471.476 62.4848 471.476 56.7109C471.476 50.937 469.183 45.3995 465.1 41.3167C461.017 37.234 455.48 34.9403 449.706 34.9403H246.297Z" fill="white"/>
<path d="M119.508 159.089C144.118 159.089 164.068 139.138 164.068 114.528C164.068 89.9179 144.118 69.9674 119.508 69.9674C94.8977 69.9674 74.9473 89.9179 74.9473 114.528C74.9473 139.138 94.8977 159.089 119.508 159.089Z" fill="#9E616A"/>
<path d="M108.109 156.907C107.918 156.488 107.728 156.067 107.539 155.645C107.612 155.647 107.684 155.658 107.757 155.66L108.109 156.907Z" fill="#2F2E41"/>
<path d="M73.708 71.9938C75.9617 70.1959 78.5958 68.5417 81.4774 68.6347C84.3588 68.7276 87.2808 71.33 86.6838 74.1506C91.9765 64.7794 100.401 57.5719 110.478 53.7931C120.556 50.0144 131.642 49.9059 141.791 53.4868C148.953 56.0135 155.976 61.0683 157.621 68.4823C158.043 70.3855 158.134 72.4723 159.322 74.0178C160.821 75.9663 163.687 76.4071 166.048 75.7216C166.071 75.7148 166.095 75.7078 166.118 75.7008C166.517 75.5646 166.948 75.5512 167.354 75.6624C167.761 75.7735 168.124 76.004 168.398 76.3241C168.672 76.6442 168.844 77.0392 168.891 77.4579C168.938 77.8767 168.858 78.2999 168.662 78.6729L166.636 82.4521C169.19 83.0215 171.845 82.965 174.372 82.2875C174.792 82.1774 175.236 82.1999 175.643 82.3519C176.049 82.5039 176.399 82.778 176.644 83.1366C176.888 83.4952 177.016 83.9207 177.009 84.3548C177.003 84.7889 176.862 85.2103 176.606 85.5611C169.925 94.7348 158.762 100.659 147.37 100.589C139.274 100.54 131.094 97.7493 123.214 99.6112C120.166 100.331 117.317 101.725 114.878 103.69C112.438 105.654 110.47 108.14 109.116 110.965C107.763 113.79 107.059 116.882 107.056 120.014C107.054 123.146 107.752 126.24 109.101 129.067C106.681 126.419 102.001 127.046 99.525 129.642C97.0489 132.238 96.4079 136.112 96.6574 139.691C97.0389 145.165 99.1835 150.323 101.444 155.343C82.4889 154.746 64.56 141.449 58.5252 123.464C52.465 105.405 58.8163 83.8734 73.708 71.9938Z" fill="#2F2E41"/>
<path opacity="0.2" d="M43.8594 248.346L56.3576 316.347L63.8568 317L43.8594 248.346Z" fill="black"/>
<path opacity="0.2" d="M181.53 243.218L169.031 316.298L161.532 317L181.53 243.218Z" fill="black"/>
<path d="M84.3684 49.1084C81.972 50.109 79.4715 49.0124 78.4229 46.501C77.3582 43.9512 78.3526 41.3629 80.7873 40.3462C83.2223 39.3294 85.6783 40.4287 86.7601 43.0196C87.8258 45.5717 86.8422 48.0754 84.3684 49.1084ZM79.778 35.3274L77.8726 36.1231C77.3966 36.3195 76.8642 36.33 76.3808 36.1527C75.8974 35.9754 75.4981 35.6231 75.262 35.1655L75.1678 34.9812C73.1176 31.2838 72.8828 26.7901 74.4737 21.632C75.9475 17.005 76.5596 13.7508 75.3286 10.8026C73.9053 7.39406 70.866 6.32631 66.9902 7.87306C65.487 8.50075 65.0087 8.49074 63.8258 9.66425C63.5684 9.92262 63.2617 10.1265 62.9239 10.2638C62.5861 10.4011 62.2241 10.4689 61.8594 10.4633C61.507 10.4591 61.159 10.3841 60.8361 10.2425C60.5133 10.101 60.2223 9.89584 59.9804 9.6394C59.5145 9.1452 59.2535 8.4926 59.25 7.8134C59.2466 7.1342 59.501 6.479 59.962 5.98012C61.9503 3.89871 64.3485 2.25205 67.0052 1.14405C75.3326 -2.33318 79.5247 2.80044 81.443 7.39456C83.3194 11.8881 82.2639 16.0574 80.568 21.457C79.1468 25.9438 79.2295 29.2684 80.8439 32.5741C80.9605 32.824 81.0253 33.0949 81.0346 33.3705C81.0438 33.6461 80.9973 33.9208 80.8977 34.1779C80.7981 34.4351 80.6476 34.6695 80.4552 34.867C80.2628 35.0645 80.0324 35.2212 79.778 35.3274Z" fill="#116A7B"/>
<path d="M291.228 69.7285H250.757C250.628 69.7294 250.501 69.7048 250.382 69.6562C250.263 69.6076 250.154 69.5359 250.063 69.4453C249.972 69.3547 249.9 69.247 249.85 69.1283C249.801 69.0096 249.775 68.8823 249.775 68.7537C249.775 68.6251 249.801 68.4978 249.85 68.3791C249.9 68.2604 249.972 68.1527 250.063 68.062C250.154 67.9714 250.263 67.8998 250.382 67.8512C250.501 67.8026 250.628 67.778 250.757 67.7789H291.228C291.485 67.7806 291.731 67.8841 291.913 68.0667C292.094 68.2494 292.196 68.4963 292.196 68.7537C292.196 69.0111 292.094 69.258 291.913 69.4406C291.731 69.6233 291.485 69.7267 291.228 69.7285Z" fill="#116A7B"/>
<path d="M342.567 70.0534H302.096C301.967 70.0543 301.84 70.0297 301.721 69.9811C301.602 69.9325 301.493 69.8608 301.402 69.7702C301.311 69.6796 301.238 69.5719 301.189 69.4532C301.14 69.3345 301.114 69.2072 301.114 69.0786C301.114 68.95 301.14 68.8227 301.189 68.704C301.238 68.5853 301.311 68.4775 301.402 68.3869C301.493 68.2963 301.602 68.2247 301.721 68.1761C301.84 68.1275 301.967 68.1029 302.096 68.1038H342.567C342.695 68.1029 342.823 68.1275 342.942 68.1761C343.061 68.2247 343.169 68.2963 343.26 68.3869C343.351 68.4775 343.424 68.5853 343.473 68.704C343.523 68.8227 343.548 68.95 343.548 69.0786C343.548 69.2072 343.523 69.3345 343.473 69.4532C343.424 69.5719 343.351 69.6796 343.26 69.7702C343.169 69.8608 343.061 69.9325 342.942 69.9811C342.823 70.0297 342.695 70.0543 342.567 70.0534Z" fill="#116A7B"/>
<path d="M393.907 70.3783H353.436C353.179 70.3766 352.932 70.2731 352.751 70.0905C352.57 69.9079 352.468 69.6609 352.468 69.4035C352.468 69.1461 352.57 68.8992 352.751 68.7166C352.932 68.5339 353.179 68.4305 353.436 68.4287H393.907C394.035 68.4279 394.163 68.4524 394.282 68.501C394.401 68.5496 394.509 68.6213 394.6 68.7119C394.692 68.8025 394.764 68.9103 394.813 69.029C394.863 69.1477 394.888 69.275 394.888 69.4035C394.888 69.5321 394.863 69.6594 394.813 69.7781C394.764 69.8968 394.692 70.0046 394.6 70.0952C394.509 70.1858 394.401 70.2575 394.282 70.306C394.163 70.3546 394.035 70.3792 393.907 70.3783Z" fill="#116A7B"/>
<path d="M445.246 70.7033H404.775C404.517 70.7015 404.271 70.598 404.09 70.4154C403.908 70.2328 403.807 69.9858 403.807 69.7285C403.807 69.4711 403.908 69.2241 404.09 69.0415C404.271 68.8589 404.517 68.7554 404.775 68.7537H445.246C445.503 68.7554 445.749 68.8589 445.931 69.0415C446.112 69.2241 446.214 69.4711 446.214 69.7285C446.214 69.9858 446.112 70.2328 445.931 70.4154C445.749 70.598 445.503 70.7015 445.246 70.7033Z" fill="#116A7B"/>
<path d="M270.903 60.7572C275.057 60.7572 278.424 57.3896 278.424 53.2354C278.424 49.0812 275.057 45.7136 270.903 45.7136C266.748 45.7136 263.381 49.0812 263.381 53.2354C263.381 57.3896 266.748 60.7572 270.903 60.7572Z" fill="#116A7B"/>
<path d="M322.552 60.7572C326.706 60.7572 330.074 57.3896 330.074 53.2354C330.074 49.0812 326.706 45.7136 322.552 45.7136C318.398 45.7136 315.03 49.0812 315.03 53.2354C315.03 57.3896 318.398 60.7572 322.552 60.7572Z" fill="#116A7B"/>
<path d="M374.202 60.7572C378.357 60.7572 381.724 57.3896 381.724 53.2354C381.724 49.0812 378.357 45.7136 374.202 45.7136C370.048 45.7136 366.681 49.0812 366.681 53.2354C366.681 57.3896 370.048 60.7572 374.202 60.7572Z" fill="#116A7B"/>
<path d="M425.852 60.7572C430.006 60.7572 433.374 57.3896 433.374 53.2354C433.374 49.0812 430.006 45.7136 425.852 45.7136C421.698 45.7136 418.33 49.0812 418.33 53.2354C418.33 57.3896 421.698 60.7572 425.852 60.7572Z" fill="#116A7B"/>
</g>
<defs>
<clipPath id="clip0_356_2728">
<rect width="477" height="317" fill="white"/>
</clipPath>
</defs>
</svg>
