<svg width="500" height="299" viewBox="0 0 500 299" fill="none" xmlns="http://www.w3.org/2000/svg">
<g clip-path="url(#clip0_293_226)">
<path d="M382.812 295.402C376.41 289.995 372.522 281.455 373.542 273.141C374.562 264.827 380.877 257.183 389.07 255.418C397.262 253.652 406.601 258.539 409.089 266.538C410.458 251.117 412.036 235.05 420.239 221.917C427.667 210.026 440.532 201.517 454.474 199.995C468.417 198.473 483.097 204.222 491.792 215.221C500.487 226.22 502.617 242.211 496.526 254.839C492.04 264.141 483.775 271.064 475.115 276.696C447.131 294.743 413.568 302.082 380.601 297.363L382.812 295.402Z" fill="#F2F2F2"/>
<path d="M478.004 204.54C466.5 213.906 455.946 224.381 446.495 235.814C431.704 253.644 419.735 273.635 411.005 295.091C410.366 296.656 412.909 297.337 413.541 295.789C427.825 260.92 450.628 230.186 479.864 206.399C481.177 205.331 479.307 203.481 478.004 204.54Z" fill="white"/>
<path d="M160.958 293.933C169.75 286.507 175.091 274.777 173.69 263.357C172.29 251.938 163.615 241.44 152.363 239.015C141.111 236.59 128.284 243.302 124.866 254.289C122.985 233.108 120.818 211.039 109.551 193.001C99.3493 176.669 81.6795 164.982 62.5294 162.891C43.3794 160.801 23.2168 168.697 11.2736 183.804C-0.669596 198.912 -3.59384 220.875 4.77087 238.219C10.9328 250.996 22.2854 260.505 34.18 268.241C72.128 292.921 119.203 303.215 163.995 296.626" fill="#F2F2F2"/>
<path d="M30.2108 169.135C46.012 181.999 60.5079 196.386 73.4889 212.088C86.4719 227.775 97.9021 244.683 107.619 262.575C113.05 272.612 117.929 282.937 122.234 293.506C123.112 295.655 119.619 296.591 118.751 294.465C111.126 275.833 101.692 257.993 90.5849 241.201C79.5318 224.469 66.8808 208.848 52.8098 194.558C44.8512 186.48 36.4542 178.845 27.6568 171.688C25.8536 170.22 28.4225 167.679 30.2108 169.135Z" fill="white"/>
<path d="M358.908 298.126H149.138V83.0044C149.138 37.2355 186.392 0 232.184 0H275.862C321.654 0 358.908 37.2355 358.908 83.0044V298.126Z" fill="#F2F2F2"/>
<path d="M315.23 298.126H149.138V83.0044C149.092 65.4668 154.648 48.3725 164.998 34.2102C165.379 33.6905 165.76 33.1775 166.152 32.6701C171.158 26.1079 177.115 20.3287 183.827 15.5232C184.206 15.2475 184.587 14.9765 184.973 14.7056C190.589 10.821 196.664 7.64543 203.06 5.25115C203.44 5.10726 203.827 4.96309 204.214 4.82481C209.998 2.76152 215.995 1.34817 222.092 0.610872C222.47 0.55926 222.858 0.518873 223.246 0.478485C229.188 -0.156525 235.181 -0.156525 241.123 0.478485C241.51 0.518873 241.898 0.559255 242.28 0.611424C248.376 1.34877 254.371 2.76194 260.154 4.82483C260.541 4.96312 260.928 5.10728 261.309 5.25145C267.626 7.61552 273.63 10.7437 279.186 14.5662C279.572 14.8313 279.958 15.1022 280.339 15.3732C284.101 18.0573 287.635 21.0476 290.904 24.3135C293.526 26.9331 295.969 29.7255 298.217 32.6718C298.608 33.1775 298.989 33.6905 299.37 34.2094C309.719 48.3718 315.276 65.4664 315.23 83.0044V298.126Z" fill="#CCCCCC"/>
<path d="M301.724 201.91C306.803 201.91 310.92 197.795 310.92 192.72C310.92 187.644 306.803 183.529 301.724 183.529C296.646 183.529 292.529 187.644 292.529 192.72C292.529 197.795 296.646 201.91 301.724 201.91Z" fill="#116A7B"/>
<path d="M341.723 291.683H334.677L331.325 264.52L341.725 264.52L341.723 291.683Z" fill="#FFB8B8"/>
<path d="M329.645 289.671H343.233V298.222H321.089C321.089 297.099 321.31 295.987 321.74 294.95C322.17 293.912 322.8 292.97 323.595 292.175C324.389 291.381 325.332 290.752 326.37 290.322C327.408 289.892 328.521 289.671 329.645 289.671Z" fill="#2F2E41"/>
<path d="M376.781 291.683H369.735L366.383 264.52L376.782 264.52L376.781 291.683Z" fill="#FFB8B8"/>
<path d="M364.702 289.671H378.291V298.222H356.146C356.146 297.099 356.368 295.987 356.798 294.95C357.228 293.912 357.858 292.97 358.652 292.175C359.447 291.381 360.39 290.752 361.428 290.322C362.466 289.892 363.579 289.671 364.702 289.671Z" fill="#2F2E41"/>
<path d="M306.378 194.54C305.871 193.794 305.534 192.945 305.391 192.055C305.248 191.164 305.301 190.253 305.548 189.385C305.796 188.517 306.23 187.714 306.821 187.033C307.412 186.351 308.146 185.807 308.97 185.44L332.922 119.457L344.708 125.886L317.36 188.941C317.886 190.366 317.871 191.934 317.318 193.349C316.764 194.763 315.711 195.926 314.357 196.616C313.004 197.306 311.444 197.476 309.973 197.094C308.502 196.711 307.223 195.802 306.378 194.54Z" fill="#FFB8B8"/>
<path d="M373.182 206.939C372.399 206.49 371.724 205.875 371.204 205.137C370.685 204.4 370.333 203.557 370.175 202.669C370.016 201.781 370.054 200.869 370.287 199.997C370.519 199.125 370.94 198.315 371.519 197.623L364.099 127.825L377.512 128.438L380.595 197.093C381.693 198.143 382.368 199.559 382.491 201.073C382.614 202.587 382.178 204.094 381.264 205.307C380.35 206.521 379.022 207.357 377.533 207.658C376.043 207.958 374.495 207.703 373.182 206.939Z" fill="#FFB8B8"/>
<path d="M351.785 107.236C359.581 107.236 365.9 100.919 365.9 93.1272C365.9 85.3353 359.581 79.0187 351.785 79.0187C343.989 79.0187 337.669 85.3353 337.669 93.1272C337.669 100.919 343.989 107.236 351.785 107.236Z" fill="#FFB8B8"/>
<path d="M373.092 191.064H330.536L330.587 190.733C330.664 190.239 338.172 141.081 332.634 124.999C332.079 123.418 332.128 121.688 332.772 120.142C333.415 118.595 334.609 117.341 336.122 116.621C344.037 112.896 359.23 108.309 372.054 119.441C373.941 121.107 375.414 123.188 376.358 125.52C377.301 127.853 377.689 130.373 377.49 132.881L373.092 191.064Z" fill="#116A7B"/>
<path d="M338.709 148.345L319.55 144.461L328.531 123.19C329.068 121.13 330.401 119.366 332.238 118.287C334.074 117.208 336.263 116.901 338.326 117.433C340.388 117.965 342.155 119.293 343.24 121.126C344.324 122.959 344.636 125.147 344.109 127.209L338.709 148.345Z" fill="#116A7B"/>
<path d="M363.247 155.559L362.096 129.169C361.222 124.208 364.063 119.518 368.433 118.752C372.804 117.988 377.072 121.429 377.949 126.426L382.279 151.085L363.247 155.559Z" fill="#116A7B"/>
<path d="M371.676 187.905C378.523 213.971 379.27 247.111 377.423 283.26L368.228 282.111L351.561 213.18L342.366 283.26L332.021 282.685C328.93 244.756 325.921 212.194 330.871 190.777L371.676 187.905Z" fill="#2F2E41"/>
<path d="M361.086 104.031C358.452 106.834 353.562 105.329 353.219 101.499C353.192 101.202 353.194 100.902 353.225 100.605C353.402 98.9088 354.383 97.3685 354.148 95.5771C354.094 95.1313 353.928 94.7064 353.665 94.3428C351.566 91.5342 346.641 95.599 344.66 93.0565C343.446 91.4975 344.873 89.0429 343.941 87.3004C342.711 85.0007 339.068 86.1351 336.784 84.8757C334.242 83.4744 334.394 79.5765 336.067 77.2056C338.108 74.3142 341.686 72.7713 345.219 72.5489C348.752 72.3266 352.261 73.2812 355.559 74.566C359.307 76.0258 363.023 78.0433 365.33 81.337C368.134 85.3426 368.404 90.7277 367.002 95.4114C366.148 98.2606 363.236 101.741 361.086 104.031Z" fill="#2F2E41"/>
<path d="M482.748 298.496H58.4411C58.26 298.496 58.0864 298.423 57.9585 298.295C57.8306 298.167 57.7588 297.993 57.7588 297.812C57.7588 297.631 57.8306 297.457 57.9585 297.329C58.0864 297.201 58.26 297.129 58.4411 297.128H482.748C482.929 297.129 483.103 297.201 483.231 297.329C483.358 297.457 483.43 297.631 483.43 297.812C483.43 297.993 483.358 298.167 483.231 298.295C483.103 298.423 482.929 298.496 482.748 298.496Z" fill="#3F3D56"/>
<path d="M269.54 235.801H194.828C193.844 235.807 192.898 235.422 192.198 234.731C191.497 234.04 191.1 233.1 191.092 232.116V65.4358C191.1 64.4523 191.497 63.512 192.198 62.8212C192.898 62.1303 193.844 61.7454 194.828 61.7506H269.54C270.524 61.7454 271.47 62.1303 272.17 62.8212C272.871 63.512 273.268 64.4523 273.276 65.4358V232.116C273.268 233.1 272.871 234.04 272.17 234.731C271.47 235.422 270.524 235.807 269.54 235.801Z" fill="white"/>
<path d="M273.276 115.683H191.092V116.832H273.276V115.683Z" fill="#CCCCCC"/>
<path d="M273.563 181.231H191.379V182.38H273.563V181.231Z" fill="#CCCCCC"/>
<path d="M218.104 61.7507H216.954V236.376H218.104V61.7507Z" fill="#CCCCCC"/>
<path d="M246.839 61.7507H245.69V236.376H246.839V61.7507Z" fill="#CCCCCC"/>
</g>
<defs>
<clipPath id="clip0_293_226">
<rect width="500" height="298.78" fill="white"/>
</clipPath>
</defs>
</svg>
