<svg width="23" height="48" viewBox="0 0 23 48" fill="none" xmlns="http://www.w3.org/2000/svg">
<path fill-rule="evenodd" clip-rule="evenodd" d="M11.2415 22.4831C17.4501 22.4831 22.483 17.4501 22.483 11.2415C22.483 5.033 17.4501 0 11.2415 0C5.033 0 0 5.033 0 11.2415C0 17.4501 5.033 22.4831 11.2415 22.4831ZM11.2415 21.3589C16.8292 21.3589 21.3589 16.8292 21.3589 11.2415C21.3589 5.65385 16.8292 1.12415 11.2415 1.12415C5.65384 1.12415 1.12415 5.65385 1.12415 11.2415C1.12415 16.8292 5.65384 21.3589 11.2415 21.3589Z" fill="#116A7B"/>
<path fill-rule="evenodd" clip-rule="evenodd" d="M11.2417 21.4124C15.9721 21.4124 19.8067 17.5777 19.8067 12.8474C19.8067 8.11712 15.9721 4.28247 11.2417 4.28247C6.5114 4.28247 2.67676 8.11712 2.67676 12.8474C2.67676 17.5777 6.5114 21.4124 11.2417 21.4124ZM11.2417 20.3418C15.3808 20.3418 18.7361 16.9865 18.7361 12.8474C18.7361 8.70842 15.3808 5.3531 11.2417 5.3531C7.10276 5.3531 3.7474 8.70842 3.7474 12.8474C3.7474 16.9865 7.10276 20.3418 11.2417 20.3418Z" fill="#116A7B"/>
<path fill-rule="evenodd" clip-rule="evenodd" d="M7.63311 19.0355C7.65046 18.7531 7.88455 18.533 8.16746 18.533H11.5277H14.4774C14.7603 18.533 14.9944 18.7531 15.0117 19.0355L15.2025 22.1448C15.2159 22.3643 15.0937 22.5697 14.8944 22.6627L8.00574 25.875C7.63788 26.0465 7.22033 25.7622 7.24523 25.357L7.63311 19.0355ZM7.13094 31.9204C6.95311 32.0034 6.83491 32.177 6.82287 32.3728L6.51362 37.4122C6.48878 37.8174 6.90627 38.1018 7.27419 37.9302L15.5853 34.0547C15.7847 33.9617 15.9069 33.7563 15.8934 33.5367L15.6013 28.7776C15.5782 28.4009 15.1829 28.1657 14.8408 28.3252L7.13094 31.9204ZM16.2922 40.103C16.2691 39.7263 15.8738 39.4912 15.5317 39.6507L6.39933 43.9091C6.2215 43.9921 6.1033 44.1657 6.09126 44.3615L5.90288 47.432C5.88398 47.7399 6.12862 48 6.43717 48H8.121C11.6399 47.7474 13.0224 46.2781 14.109 45.1233C14.71 44.4847 15.2203 43.9422 15.9515 43.755C16.2494 43.6788 16.4962 43.427 16.4774 43.1202L16.2922 40.103Z" fill="#151515"/>
<path fill-rule="evenodd" clip-rule="evenodd" d="M15.8653 17.586C16.0412 17.871 15.4449 18.7001 15.1262 19.1431C15.0673 19.2249 15.0179 19.2936 14.9846 19.3432C14.9721 19.361 14.966 19.3825 14.9674 19.4043L14.9716 19.4899H7.66545L7.6731 19.4114C7.67567 19.3884 7.66994 19.3649 7.65683 19.3453L6.73347 17.9399C6.72287 17.924 6.7172 17.9052 6.7172 17.886C6.70804 17.5687 6.85552 17.3806 7.18602 17.3542C7.34057 17.342 7.49409 17.3284 7.64666 17.3135C7.67166 17.311 7.69489 17.2992 7.71175 17.2804C7.72867 17.2616 7.73809 17.2372 7.7382 17.2118V13.6974C7.7382 13.6715 7.72835 13.6465 7.71057 13.6276C7.6928 13.6087 7.6685 13.5973 7.64259 13.5957C7.50833 13.5869 7.37718 13.5791 7.24903 13.5723C6.53214 13.5306 6.6104 12.9805 7.08533 12.65C7.18779 12.5787 7.29817 12.5047 7.41262 12.4281C7.93305 12.0792 8.5372 11.6744 8.85983 11.2101C9.29911 10.5782 9.74556 9.95246 10.1991 9.33283C10.9384 8.32206 12.0377 8.63222 12.6631 9.55959C13.0468 10.1284 13.4362 10.6938 13.8315 11.2558C14.1523 11.7127 14.7458 12.1115 15.263 12.459C15.3916 12.5455 15.5155 12.6287 15.6294 12.709C16.1612 13.0842 15.9334 13.5744 15.3284 13.5805C15.2199 13.5818 15.1111 13.5862 15.0019 13.5937C14.9761 13.5957 14.952 13.6073 14.9345 13.6262C14.917 13.645 14.9073 13.6698 14.9073 13.6953V17.2281C14.9073 17.2417 14.9101 17.2552 14.9154 17.2677C14.9207 17.2803 14.9284 17.2916 14.9382 17.3011C14.948 17.3106 14.9595 17.318 14.9722 17.3229C14.9849 17.3279 14.9985 17.3302 15.0121 17.3298C15.1714 17.3257 15.3249 17.3366 15.4727 17.3623C15.6639 17.3962 15.7948 17.4708 15.8653 17.586ZM13.2549 13.6374C13.2549 13.6237 13.2494 13.6104 13.2397 13.6007C13.2299 13.591 13.2168 13.5856 13.203 13.5856H9.44252C9.43572 13.5856 9.42897 13.5869 9.42266 13.5895C9.41634 13.5921 9.41067 13.5959 9.40585 13.6007C9.40103 13.6055 9.39718 13.6113 9.39461 13.6176C9.39198 13.6238 9.39065 13.6306 9.39065 13.6374V17.2698C9.39065 17.2835 9.39611 17.2967 9.40585 17.3064C9.41554 17.3162 9.42876 17.3216 9.44252 17.3216H13.203C13.2168 17.3216 13.2299 17.3162 13.2397 17.3064C13.2494 17.2967 13.2549 17.2835 13.2549 17.2698V13.6374Z" fill="#151515"/>
</svg>
