<svg width="98" height="32" viewBox="0 0 98 32" fill="none" xmlns="http://www.w3.org/2000/svg">
<path fill-rule="evenodd" clip-rule="evenodd" d="M7.97497 14.7505C12.0482 14.7505 15.3502 11.4485 15.3502 7.37524C15.3502 3.302 12.0482 0 7.97497 0C3.90174 0 0.599731 3.302 0.599731 7.37524C0.599731 11.4485 3.90174 14.7505 7.97497 14.7505ZM7.97497 14.013C11.6409 14.013 14.6127 11.0412 14.6127 7.37524C14.6127 3.70933 11.6409 0.737524 7.97497 0.737524C4.30905 0.737524 1.33726 3.70933 1.33726 7.37524C1.33726 11.0412 4.30905 14.013 7.97497 14.013Z" fill="#116A7B"/>
<path fill-rule="evenodd" clip-rule="evenodd" d="M7.97519 14.048C11.0786 14.048 13.5944 11.5322 13.5944 8.4288C13.5944 5.32537 11.0786 2.80957 7.97519 2.80957C4.87176 2.80957 2.35596 5.32537 2.35596 8.4288C2.35596 11.5322 4.87176 14.048 7.97519 14.048ZM7.97519 13.3456C10.6907 13.3456 12.892 11.1443 12.892 8.4288C12.892 5.71331 10.6907 3.51198 7.97519 3.51198C5.25973 3.51198 3.05837 5.71331 3.05837 8.4288C3.05837 11.1443 5.25973 13.3456 7.97519 13.3456Z" fill="#116A7B"/>
<path fill-rule="evenodd" clip-rule="evenodd" d="M5.60751 12.4886C5.61889 12.3034 5.77247 12.1589 5.95808 12.1589H8.16261H10.0978C10.2834 12.1589 10.437 12.3034 10.4484 12.4886L10.5736 14.5285C10.5824 14.6726 10.5022 14.8073 10.3715 14.8684L5.85198 16.9758C5.61063 17.0883 5.3367 16.9018 5.35303 16.636L5.60751 12.4886ZM5.27804 20.9421C5.16138 20.9965 5.08383 21.1104 5.07593 21.2388L4.87304 24.5451C4.85674 24.8109 5.13065 24.9975 5.37203 24.8849L10.8247 22.3423C10.9555 22.2813 11.0357 22.1465 11.0268 22.0025L10.8352 18.8802C10.8201 18.633 10.5607 18.4787 10.3363 18.5834L5.27804 20.9421ZM11.2885 26.3104C11.2733 26.0633 11.014 25.909 10.7895 26.0137L4.79806 28.8075C4.68139 28.862 4.60384 28.9758 4.59594 29.1043L4.47235 31.1187C4.45996 31.3208 4.62045 31.4914 4.82289 31.4914H5.92759C8.23622 31.3257 9.14327 30.3617 9.85614 29.6041C10.2504 29.1851 10.5853 28.8292 11.065 28.7064C11.2604 28.6564 11.4223 28.4912 11.41 28.2899L11.2885 26.3104Z" fill="#151515"/>
<path fill-rule="evenodd" clip-rule="evenodd" d="M11.0084 11.5378C11.1238 11.7248 10.7326 12.2687 10.5235 12.5594C10.4849 12.613 10.4525 12.6581 10.4306 12.6907C10.4224 12.7023 10.4184 12.7164 10.4193 12.7307L10.4221 12.7869H5.62873L5.63375 12.7354C5.63544 12.7203 5.63168 12.7049 5.62307 12.692L5.01729 11.77C5.01033 11.7596 5.00661 11.7472 5.00661 11.7346C5.0006 11.5265 5.09736 11.4031 5.31419 11.3857C5.41558 11.3777 5.51631 11.3688 5.6164 11.359C5.6328 11.3574 5.64805 11.3496 5.65911 11.3373C5.67021 11.325 5.67639 11.309 5.67646 11.2923V8.98658C5.67646 8.96958 5.67 8.95318 5.65834 8.94078C5.64668 8.92838 5.63073 8.9209 5.61373 8.91988C5.52565 8.91409 5.43961 8.90896 5.35553 8.90453C4.8852 8.87718 4.93655 8.51625 5.24813 8.29941C5.31535 8.25263 5.38777 8.2041 5.46286 8.15381C5.8043 7.92496 6.20066 7.65935 6.41233 7.35472C6.70053 6.94019 6.99343 6.52964 7.29097 6.12312C7.77601 5.45998 8.49721 5.66347 8.90751 6.27189C9.15926 6.64508 9.41476 7.01602 9.67408 7.38474C9.88459 7.68446 10.2739 7.9461 10.6132 8.17414C10.6976 8.23086 10.7789 8.28547 10.8536 8.33812C11.2025 8.58427 11.0531 8.90587 10.6561 8.90987C10.585 8.91075 10.5136 8.91363 10.442 8.91855C10.4251 8.91988 10.4093 8.9275 10.3978 8.93987C10.3863 8.95223 10.3799 8.96845 10.3799 8.98524V11.303C10.3799 11.3119 10.3817 11.3207 10.3852 11.329C10.3887 11.3372 10.3938 11.3446 10.4002 11.3509C10.4066 11.3571 10.4142 11.362 10.4225 11.3652C10.4308 11.3684 10.4397 11.37 10.4487 11.3697C10.5532 11.367 10.6539 11.3742 10.7509 11.391C10.8763 11.4133 10.9622 11.4622 11.0084 11.5378ZM9.2958 8.94724C9.2958 8.93821 9.29222 8.92954 9.28583 8.92315C9.27944 8.91679 9.2708 8.91321 9.26177 8.91321H6.79461C6.79015 8.91321 6.78573 8.91409 6.78158 8.91577C6.77744 8.91749 6.77372 8.92002 6.77056 8.92315C6.7674 8.92631 6.76487 8.93007 6.76318 8.93421C6.76146 8.93832 6.76058 8.94275 6.76058 8.94724V11.3303C6.76058 11.3393 6.76416 11.348 6.77056 11.3544C6.77691 11.3608 6.78559 11.3644 6.79461 11.3644H9.26177C9.2708 11.3644 9.27944 11.3608 9.28583 11.3544C9.29222 11.348 9.2958 11.3393 9.2958 11.3303V8.94724Z" fill="#151515"/>
<path d="M18.4028 31.5279V8.16312H34.0468V12.5798H23.6624V17.4686H32.9004V21.8853H23.6624V31.5279H18.4028ZM43.3794 28.0215C43.8739 28.0215 44.3459 28.0102 44.7955 27.9878C45.245 27.9653 45.6046 27.9316 45.8744 27.8866V24.0768C45.6721 24.0318 45.3686 23.9869 44.9641 23.9419C44.5595 23.897 44.1886 23.8745 43.8514 23.8745C43.3794 23.8745 42.9299 23.9082 42.5028 23.9756C42.0982 24.0206 41.7386 24.1217 41.4239 24.2791C41.1093 24.4364 40.862 24.6499 40.6822 24.9197C40.5024 25.1894 40.4125 25.5265 40.4125 25.9311C40.4125 26.7178 40.671 27.2685 41.1879 27.5832C41.7274 27.8754 42.4579 28.0215 43.3794 28.0215ZM42.9748 13.3216C44.4583 13.3216 45.6945 13.4902 46.6835 13.8273C47.6725 14.1645 48.4592 14.6477 49.0436 15.2771C49.6505 15.9064 50.0775 16.6706 50.3248 17.5697C50.572 18.4688 50.6957 19.469 50.6957 20.5704V31.0221C49.9764 31.1795 48.9762 31.3593 47.695 31.5616C46.4138 31.7864 44.8629 31.8987 43.0423 31.8987C41.896 31.8987 40.8508 31.7976 39.9067 31.5953C38.9852 31.393 38.1873 31.0671 37.513 30.6176C36.8386 30.1455 36.3217 29.5387 35.962 28.7969C35.6023 28.0552 35.4225 27.1449 35.4225 26.066C35.4225 25.032 35.6248 24.1554 36.0295 23.4362C36.4565 22.7169 37.0185 22.1438 37.7152 21.7167C38.412 21.2896 39.21 20.9862 40.109 20.8064C41.0081 20.6041 41.9409 20.503 42.9074 20.503C43.5592 20.503 44.1324 20.5367 44.6269 20.6041C45.1439 20.649 45.5597 20.7165 45.8744 20.8064V20.3344C45.8744 19.4803 45.6159 18.7947 45.0989 18.2777C44.5819 17.7608 43.6829 17.5023 42.4017 17.5023C41.5476 17.5023 40.7047 17.5697 39.873 17.7046C39.0414 17.817 38.3221 17.9855 37.7152 18.2103L37.0747 14.1645C37.3669 14.0746 37.7265 13.9846 38.1535 13.8947C38.6031 13.7824 39.0863 13.6924 39.6033 13.625C40.1203 13.5351 40.6597 13.4677 41.2216 13.4227C41.806 13.3553 42.3904 13.3216 42.9748 13.3216ZM65.9259 18.244C65.4763 18.1316 64.9481 18.0192 64.3413 17.9069C63.7344 17.772 63.0826 17.7046 62.3858 17.7046C62.0711 17.7046 61.689 17.7383 61.2394 17.8057C60.8124 17.8507 60.4865 17.9069 60.2617 17.9743V31.5279H55.2381V14.7376C56.1372 14.4229 57.1936 14.1307 58.4074 13.861C59.6436 13.5688 61.0147 13.4227 62.5206 13.4227C62.7904 13.4227 63.1163 13.4452 63.4984 13.4902C63.8805 13.5126 64.2626 13.5576 64.6447 13.625C65.0268 13.67 65.4089 13.7374 65.791 13.8273C66.1731 13.8947 66.499 13.9846 66.7688 14.097L65.9259 18.244ZM85.7207 22.627C85.7207 24.0206 85.5184 25.3018 85.1138 26.4706C84.7092 27.6169 84.1248 28.6059 83.3606 29.4375C82.5964 30.2467 81.6748 30.876 80.5959 31.3256C79.5395 31.7751 78.3482 31.9999 77.0221 31.9999C75.7184 31.9999 74.5272 31.7751 73.4483 31.3256C72.3919 30.876 71.4815 30.2467 70.7173 29.4375C69.9531 28.6059 69.3575 27.6169 68.9304 26.4706C68.5034 25.3018 68.2898 24.0206 68.2898 22.627C68.2898 21.2334 68.5034 19.9635 68.9304 18.8172C69.38 17.6709 69.9868 16.6931 70.751 15.8839C71.5377 15.0748 72.4593 14.4454 73.5157 13.9959C74.5946 13.5463 75.7634 13.3216 77.0221 13.3216C78.3033 13.3216 79.4721 13.5463 80.5285 13.9959C81.6074 14.4454 82.5289 15.0748 83.2932 15.8839C84.0574 16.6931 84.653 17.6709 85.0801 18.8172C85.5071 19.9635 85.7207 21.2334 85.7207 22.627ZM80.5959 22.627C80.5959 21.0761 80.2813 19.8624 79.6519 18.9858C79.045 18.0867 78.1684 17.6371 77.0221 17.6371C75.8758 17.6371 74.9879 18.0867 74.3586 18.9858C73.7292 19.8624 73.4146 21.0761 73.4146 22.627C73.4146 24.1779 73.7292 25.4142 74.3586 26.3357C74.9879 27.2348 75.8758 27.6843 77.0221 27.6843C78.1684 27.6843 79.045 27.2348 79.6519 26.3357C80.2813 25.4142 80.5959 24.1779 80.5959 22.627ZM96.6922 31.865C95.2312 31.8426 94.0399 31.6852 93.1184 31.393C92.2193 31.1008 91.5 30.6962 90.9606 30.1793C90.4436 29.6398 90.084 28.9992 89.8817 28.2575C89.7019 27.4933 89.612 26.6391 89.612 25.6951V6.17392L94.6356 5.36475V24.6837C94.6356 25.1332 94.6693 25.5378 94.7367 25.8974C94.8042 26.257 94.9278 26.5605 95.1076 26.8077C95.3099 27.055 95.5908 27.2573 95.9505 27.4146C96.3101 27.5719 96.7934 27.6731 97.4002 27.718L96.6922 31.865Z" fill="#151515"/>
</svg>
